# xmcd CD database file
#
# Track frame offsets:
#	150
#	6723
#	10799
#	15279
#	23888
#	32840
#	46225
#	48206
#	51631
#	54915
#	59166
#	74577
#	75930
#	85142
#	94338
#	103597
#	112831
#	121914
#	131567
#	139388
#	146874
#	155144
#	160530
#	170027
#	179220
#	188534
#	197571
#	206819
#	216483
#	223679
#	231248
#	239289
#	244632
#	254515
#	264127
#	273513
#	282987
#
# Disc length: 3903 seconds
#
# Revision: 0
# Processed by: cddbd v1.5.1PL0 Copyright (c) Steve Scherf et al.
# Submitted via: CDex 1.50Beta7
#
DISCID=290f3d25
DTITLE=David Barrett - Scales, Patterns and Bending Exercises #2
DYEAR=2001
DGENRE=Blues
TTITLE0=Music Intro
TTITLE1=Welcome
TTITLE2=Section 1
TTITLE3=Bend Notes
TTITLE4=Intro of Harp Types
TTITLE5=Section 2-Diatonic Scales
TTITLE6=Song Examples
TTITLE7=When The Saints Go Marching In
TTITLE8=Sakura Exercise 2.10
TTITLE9=Section 3
TTITLE10=4 Hole Octave Exercise 6.1
TTITLE11=Section 4-Modes and Scales
TTITLE12=Major Diatonic Harmonic Scales
TTITLE13=C Dorian Scale
TTITLE14=C Phrygian Scale
TTITLE15=C Lydian Scale
TTITLE16=C Mixolydian Scale
TTITLE17=C Natural Minor Scale
TTITLE18=C Major Pentatonic Scale
TTITLE19=C Minor Scale
TTITLE20=C Blues Scale
TTITLE21=C Whole-Tone Scale
TTITLE22=C Harmonic Scale
TTITLE23=C Dorian Scale
TTITLE24=C Phrygian Scale
TTITLE25=C Lydian Scale
TTITLE26=C Mixolydian Scale
TTITLE27=C Natural Scale
TTITLE28=C Major Pentatonic Scale
TTITLE29=C Minor Scale
TTITLE30=C Blues Scale
TTITLE31=C Whole-Scale
TTITLE32=Natural Minor Harp C Major Scale
TTITLE33=C Dorian Scale
TTITLE34=C Phrygian Scale
TTITLE35=C Lydian Scale
TTITLE36=C Mixolydian Scale
EXTD=YEAR: 2001
EXTT0=
EXTT1=
EXTT2=
EXTT3=
EXTT4=
EXTT5=
EXTT6=
EXTT7=
EXTT8=
EXTT9=
EXTT10=
EXTT11=
EXTT12=
EXTT13=
EXTT14=
EXTT15=
EXTT16=
EXTT17=
EXTT18=
EXTT19=
EXTT20=
EXTT21=
EXTT22=
EXTT23=
EXTT24=
EXTT25=
EXTT26=
EXTT27=
EXTT28=
EXTT29=
EXTT30=
EXTT31=
EXTT32=
EXTT33=
EXTT34=
EXTT35=
EXTT36=
PLAYORDER=
